<?xml version="1.0" standalone="no"?>
<!DOCTYPE svg PUBLIC "-//W3C//DTD SVG 20010904//EN"
 "http://www.w3.org/TR/2001/REC-SVG-20010904/DTD/svg10.dtd">
<svg version="1.0" xmlns="http://www.w3.org/2000/svg"
 width="256.000000pt" height="256.000000pt" viewBox="0 0 256.000000 256.000000"
 preserveAspectRatio="xMidYMid meet">
<metadata>
Created by potrace 1.10, written by Peter Selinger 2001-2011
</metadata>
<g transform="translate(0.000000,256.000000) scale(0.100000,-0.100000)"
fill="#db0501" stroke="none">
<path d="M0 1280 l0 -1280 1280 0 1280 0 0 1280 0 1280 -1280 0 -1280 0 0
-1280z m1475 591 c96 -129 175 -238 175 -243 0 -5 -20 -49 -45 -98 -48 -95
-56 -130 -29 -130 9 0 119 29 244 65 125 36 235 65 244 65 9 0 19 -6 22 -14 3
-7 -54 -122 -126 -256 -73 -133 -130 -250 -127 -259 2 -9 43 -70 90 -137 86
-120 95 -138 78 -148 -5 -3 -90 -15 -189 -25 -100 -11 -186 -22 -191 -26 -6
-3 -11 -26 -11 -50 0 -24 -5 -47 -10 -50 -6 -4 -67 21 -135 54 -68 34 -126 61
-129 61 -3 0 -7 -57 -8 -127 l-3 -128 -45 0 -45 0 -3 128 c-1 70 -5 127 -8
127 -3 0 -61 -27 -129 -61 -68 -33 -129 -58 -135 -54 -5 3 -10 26 -10 50 0 24
-5 47 -11 50 -5 4 -91 15 -191 26 -99 10 -184 22 -189 25 -17 10 -8 28 78 148
47 67 88 128 90 137 3 9 -54 125 -127 259 -72 134 -129 249 -126 257 3 7 13
13 22 13 9 0 119 -29 244 -65 125 -36 235 -65 244 -65 27 0 19 35 -30 132 -32
64 -43 96 -37 108 4 10 85 120 178 244 119 159 175 226 187 224 9 -2 96 -108
193 -237z"/>
</g>
</svg>
